<svg width="146" height="34" viewBox="0 0 146 34" fill="none" xmlns="http://www.w3.org/2000/svg">
<g clip-path="url(#clip0_22_90)">
<path d="M23.3945 18.0132C19.0395 18.0132 15.5447 21.4923 15.5447 25.8279C15.5447 30.1634 19.0395 33.6426 23.3945 33.6426C27.7496 33.6426 31.2444 30.1634 31.2444 25.8279C31.2444 21.4923 27.7496 18.0132 23.3945 18.0132ZM23.3945 28.2365C21.8891 28.2365 20.76 27.1125 20.76 25.6138C20.76 24.1151 21.8891 22.991 23.3945 22.991C24.9 22.991 26.0291 24.1151 26.0291 25.6138C25.9753 27.166 24.8462 28.2365 23.3945 28.2365Z" fill="#099BC3"/>
<path d="M23.3945 0.00341797C19.0395 0.00341797 15.5447 3.48257 15.5447 7.81813C15.5447 12.1537 19.0395 15.6328 23.3945 15.6328C27.7496 15.6328 31.2444 12.1537 31.2444 7.81813C31.1906 3.48257 27.7496 0.00341797 23.3945 0.00341797ZM23.3945 10.2803C21.8891 10.2803 20.76 9.15627 20.76 7.65756C20.76 6.15885 21.8891 5.03481 23.3945 5.03481C24.9 5.03481 26.0291 6.15885 26.0291 7.65756C26.0291 9.15627 24.8462 10.2803 23.3945 10.2803Z" fill="#099BC3"/>
<path d="M7.85668 8.88721C3.50163 8.88721 0.00683594 12.3664 0.00683594 16.7019C0.00683594 21.0375 3.50163 24.5166 7.85668 24.5166C12.2117 24.5166 15.7065 21.0375 15.7065 16.7019C15.7065 12.3664 12.2117 8.88721 7.85668 8.88721ZM7.85668 19.1641C6.35123 19.1641 5.22214 18.04 5.22214 16.5413C5.22214 15.0426 6.35123 13.9186 7.85668 13.9186C9.36213 13.9186 10.4912 15.0426 10.4912 16.5413C10.4374 18.0936 9.30836 19.1641 7.85668 19.1641Z" fill="#099BC3"/>
<path d="M49.4134 18.041C49.4134 13.7589 45.9186 10.2798 41.6174 10.2798H38.9291V12.2067C38.6602 11.0827 37.6387 10.2798 36.4021 10.2798C34.9504 10.2798 33.8213 11.4573 33.8213 12.849V18.041V23.2329C33.8213 24.6781 35.0041 25.8021 36.4021 25.8021C37.8537 25.8021 38.9828 24.6246 38.9828 23.2329V18.041C38.9828 16.5958 40.1657 15.4717 41.5636 15.4717C43.0153 15.4717 44.1444 16.6493 44.1444 18.041V23.2329C44.1444 24.6781 45.3272 25.8021 46.7251 25.8021C48.1768 25.8021 49.3059 24.6246 49.3059 23.2329L49.4134 18.041Z" fill="#231F20"/>
<path d="M115.866 18.041C115.866 13.7589 112.372 10.2798 108.07 10.2798H105.382V12.2067C105.113 11.0827 104.092 10.2798 102.855 10.2798C101.403 10.2798 100.274 11.4573 100.274 12.849V18.041V23.2329C100.274 24.6781 101.457 25.8021 102.855 25.8021C104.307 25.8021 105.436 24.6246 105.436 23.2329V18.041C105.436 16.5958 106.619 15.4717 108.016 15.4717C109.468 15.4717 110.597 16.6493 110.597 18.041V23.2329C110.597 24.6781 111.78 25.8021 113.178 25.8021C114.63 25.8021 115.759 24.6246 115.759 23.2329L115.866 18.041Z" fill="#231F20"/>
<path d="M130.438 20.6634L133.018 18.0942C133.018 13.8122 129.524 10.333 125.222 10.333C120.921 10.333 117.426 13.8122 117.426 18.0942C117.426 22.3762 120.921 25.8554 125.222 25.8554H130.438C131.889 25.8554 133.018 24.6778 133.018 23.2862C133.018 21.8945 131.889 20.6634 130.438 20.6634ZM124.039 20.3423C123.179 19.9141 122.642 19.0576 122.642 18.0407C122.642 16.5955 123.824 15.4714 125.222 15.4714C126.244 15.4714 127.104 16.0602 127.534 16.8631L124.039 20.3423Z" fill="#231F20"/>
<path d="M81.0801 10.5471C79.7898 9.90476 78.2305 10.44 77.5854 11.7246L74.7357 17.4518L71.8324 11.7246C71.1872 10.44 69.628 9.90476 68.3376 10.5471C67.0472 11.1894 66.5095 12.7416 67.1547 14.0262L72.2625 24.196C72.7464 25.1595 73.4454 25.8018 74.682 25.8018C75.8648 25.8018 76.6176 25.0524 77.1015 24.196L82.2092 14.0262C82.9082 12.7416 82.3705 11.1894 81.0801 10.5471Z" fill="#231F20"/>
<path d="M58.7663 10.2798C54.465 10.2798 50.9702 13.7589 50.9702 18.041C50.9702 22.323 54.465 25.8021 58.7663 25.8021C63.0676 25.8021 66.5624 22.323 66.5624 18.041C66.5624 13.7589 63.0676 10.2798 58.7663 10.2798ZM58.7663 20.6637C57.3146 20.6637 56.1855 19.4862 56.1855 18.0945C56.1855 16.7028 57.3684 15.5253 58.7663 15.5253C60.218 15.5253 61.3471 16.7028 61.3471 18.0945C61.3471 19.4862 60.218 20.6637 58.7663 20.6637Z" fill="#231F20"/>
<path d="M90.5961 20.6637C89.1444 20.6637 88.0153 19.4862 88.0153 18.0945C88.0153 16.6493 89.1981 15.5253 90.5961 15.5253C92.0477 15.5253 93.1768 16.7028 93.1768 18.0945C93.2306 19.4862 92.0477 20.6637 90.5961 20.6637ZM98.4459 18.041C98.4459 13.7589 94.9511 10.2798 90.6498 10.2798C86.3486 10.2798 82.8538 13.7589 82.8538 18.041C82.8538 22.323 86.3486 25.8021 90.6498 25.8021H93.3381V23.8752C93.607 24.9993 94.6285 25.8021 95.8651 25.8021C97.3168 25.8021 98.4459 24.6246 98.4459 23.2329V18.041Z" fill="#231F20"/>
<path d="M139.953 23.2329C139.953 24.6781 138.77 25.8021 137.373 25.8021C135.921 25.8021 134.792 24.6246 134.792 23.2329V7.06824C134.792 5.62306 135.975 4.49902 137.373 4.49902C138.824 4.49902 139.953 5.67658 139.953 7.06824V10.2798H142.534C143.986 10.2798 145.115 11.4573 145.115 12.849C145.115 14.2942 143.932 15.4182 142.534 15.4182C141.082 15.4182 139.953 16.5958 139.953 17.9874V23.2329Z" fill="#231F20"/>
</g>
<defs>
<clipPath id="clip0_22_90">
<rect width="145.168" height="33.5604" fill="white"/>
</clipPath>
</defs>
</svg>
